<?xml version="1.0" encoding="utf-8"?>
<!-- Generator: Adobe Illustrator 17.1.0, SVG Export Plug-In . SVG Version: 6.00 Build 0)  -->
<!DOCTYPE svg PUBLIC "-//W3C//DTD SVG 1.1//EN" "http://www.w3.org/Graphics/SVG/1.1/DTD/svg11.dtd">
<svg version="1.1" id="Layer_1" xmlns="http://www.w3.org/2000/svg" xmlns:xlink="http://www.w3.org/1999/xlink" x="0px" y="0px"
	 viewBox="0 0 426 66" enable-background="new 0 0 426 66" xml:space="preserve">
<g>
	<path fill="#306E95" d="M95.4,20.4c-5.3,0-9,1.8-11.4,5.5v-4.3H69.7v42H84V41.1c0-4.5,3-6.5,6-6.5c3.3,0,5.3,2.2,5.3,6.4v22.6h15.1
		V36.2C110.4,26.6,104.1,20.4,95.4,20.4"/>
	<polygon fill="#306E95" points="211.4,39.9 199.5,4.2 177.2,4.2 177.2,63.6 193.3,63.6 193.3,26.4 204,63.6 211.4,63.6 218.8,63.6 
		229.5,26.4 229.5,63.6 245.6,63.6 245.6,4.2 223.3,4.2 	"/>
	<path fill="#306E95" d="M409.1,20.4c-4.7,0-8.3,1.5-10.6,4.4V2.4h-15.1v61.1h15.1V41.1c0-4.6,2.3-6.5,5.3-6.5
		c3.3,0,5.3,2.2,5.3,6.4v22.6h15.1V36.2C424.1,26.6,417.8,20.4,409.1,20.4"/>
	<path fill="#306E95" d="M366.1,9.5H351v7.1c0,2.9-2.3,4.9-5.2,4.9h-2.4v13.3h7.6v11.1c0,10.3,4.9,17.6,16.8,17.6h10.8v-2v-3.8v-8.2
		h-6.9c-3.3,0-5.6-1.4-5.6-5.9v-8.7h9.8h2.8V21.6h-12.6V9.5z"/>
	<path fill="#306E95" d="M33.8,3.1C15.4,3.1,2.4,16.2,2.4,33.9s13,30.8,31.4,30.8s31.4-13.1,31.4-30.8S52.1,3.1,33.8,3.1 M33.8,49.2
		c-8.6,0-14.6-6.3-14.6-15.3s6-15.3,14.6-15.3s14.6,6.3,14.6,15.3C48.4,43,42.4,49.2,33.8,49.2"/>
	<path fill="#306E95" d="M135.7,20.4c-12.9,0-21.8,9.2-21.8,22.5c0,1.4,0.1,2.8,0.3,4.1c1.7,10.7,10.1,17.6,22.1,17.6
		c8.3,0,14.9-2.9,19-7.3l-10.3-8.6c-2.3,2.2-5.2,3.4-7.9,3.4c-4,0-6.5-1.7-7.5-5.1h22.7h4.7c0.2-0.8,0.3-3.1,0.3-4.5
		C157.1,29.4,148.4,20.4,135.7,20.4 M129.5,37.9c1-3.3,3.1-4.8,6.3-4.8c3.1,0,5.3,1.6,6.4,4.8H129.5z"/>
	<path fill="#306E95" d="M273.1,20.4c-13,0-22.6,9.1-22.9,21.6c0,0.2,0,0.4,0,0.6c0,12.8,9.7,22.1,22.9,22.1
		c13.2,0,22.9-9.4,22.9-22.1c0-0.2,0-0.4,0-0.6C295.7,29.5,286.1,20.4,273.1,20.4 M273.1,50.6c-4.3,0-7.5-3.4-7.5-8.1
		c0-0.2,0-0.4,0-0.6c0.2-4.4,3.3-7.5,7.4-7.5c4.2,0,7.2,3.1,7.4,7.5c0,0.2,0,0.4,0,0.6C280.6,47.2,277.5,50.6,273.1,50.6"/>
	<path fill="#306E95" d="M325.3,20.4c-5.3,0-9,1.8-11.4,5.5v-4.3h-14.4v42H314V41.1c0-4.5,3-6.5,6-6.5c3.3,0,5.3,2.2,5.3,6.4v22.6
		h15.1V36.2C340.3,26.6,334,20.4,325.3,20.4"/>
	<path fill="#679ABA" d="M33.8,3.1C15.4,3.1,2.4,16.2,2.4,33.9h16.7c0-9.1,6-15.3,14.6-15.3s14.6,6.3,14.6,15.3h16.7
		C65.1,16.2,52.1,3.1,33.8,3.1"/>
	<polygon fill="#679ABA" points="84,21.6 69.7,21.6 69.7,63.6 84,63.6 84,41.1 84,25.9 	"/>
	<path fill="#679ABA" d="M135.7,20.4c-12.9,0-21.8,9.2-21.8,22.5c0,1.4,0.1,2.8,0.3,4.1h15.3h22.7h4.7c0.2-0.8,0.3-3.1,0.3-4.5
		C157.1,29.4,148.4,20.4,135.7,20.4 M129.5,37.9c1-3.3,3.1-4.8,6.3-4.8c3.1,0,5.3,1.6,6.4,4.8H129.5z"/>
	<polygon fill="#679ABA" points="199.5,4.2 177.2,4.2 177.2,63.6 193.3,63.6 193.3,26.4 204,63.6 211.4,63.6 211.4,39.9 	"/>
	<path fill="#679ABA" d="M273.1,20.4c-13,0-22.6,9.1-22.9,21.6h15.4c0.2-4.4,3.3-7.5,7.4-7.5c4.2,0,7.2,3.1,7.4,7.5H296
		C295.7,29.5,286.1,20.4,273.1,20.4"/>
	<polygon fill="#679ABA" points="398.5,2.4 383.4,2.4 383.4,63.6 398.5,63.6 398.5,41.1 398.5,24.9 	"/>
	<path fill="#679ABA" d="M351,45.9c0,10.3,4.9,17.6,16.8,17.6h10.8v-2v-3.8v-8.2h-6.9c-3.3,0-5.6-1.4-5.6-5.9v-8.7H351L351,45.9
		L351,45.9z"/>
	<path fill="#679ABA" d="M325.3,20.4c-5.3,0-9,1.8-11.4,5.5v15.2c0-4.5,3-6.5,6-6.5c3.3,0,5.3,2.2,5.3,6.4v22.6h15.1V36.2
		C340.3,26.6,334,20.4,325.3,20.4"/>
</g>
</svg>
